<svg width="300" height="300" viewBox="0 0 300 300" fill="none" xmlns="http://www.w3.org/2000/svg">
<rect x="15.125" y="107.125" width="268.75" height="20.75" rx="4.875" fill="#00AFAF" stroke="black" stroke-width="0.25"/>
<path d="M16.123 112.147H18.2155V112.511H16.123V112.147ZM23.6974 112.147H25.7899V112.511H23.6974V112.147ZM31.2718 112.147H33.3643V112.511H31.2718V112.147ZM38.8462 112.147H40.9387V112.511H38.8462V112.147ZM46.4206 112.147H48.5131V112.511H46.4206V112.147ZM53.995 112.147H56.0875V112.511H53.995V112.147ZM61.5694 112.147H63.6619V112.511H61.5694V112.147ZM69.1439 112.147H71.2364V112.511H69.1439V112.147ZM76.7183 112.147H78.8108V112.511H76.7183V112.147ZM84.2927 112.147H86.3852V112.511H84.2927V112.147ZM91.8671 112.147H93.9596V112.511H91.8671V112.147ZM99.4415 112.147H101.534V112.511H99.4415V112.147ZM107.016 112.147H109.108V112.511H107.016V112.147ZM114.59 112.147H116.683V112.511H114.59V112.147ZM122.165 112.147H124.257V112.511H122.165V112.147ZM129.739 112.147H131.832V112.511H129.739V112.147ZM137.314 112.147H139.406V112.511H137.314V112.147ZM144.888 112.147H146.98V112.511H144.888V112.147ZM16.123 123.147H18.2155V123.511H16.123V123.147ZM23.6974 123.147H25.7899V123.511H23.6974V123.147ZM31.2718 123.147H33.3643V123.511H31.2718V123.147ZM38.8462 123.147H40.9387V123.511H38.8462V123.147ZM46.4206 123.147H48.5131V123.511H46.4206V123.147ZM53.995 123.147H56.0875V123.511H53.995V123.147ZM61.5694 123.147H63.6619V123.511H61.5694V123.147ZM69.1439 123.147H71.2364V123.511H69.1439V123.147ZM76.7183 123.147H78.8108V123.511H76.7183V123.147ZM84.2927 123.147H86.3852V123.511H84.2927V123.147ZM91.8671 123.147H93.9596V123.511H91.8671V123.147ZM99.4415 123.147H101.534V123.511H99.4415V123.147ZM107.016 123.147H109.108V123.511H107.016V123.147ZM114.59 123.147H116.683V123.511H114.59V123.147ZM122.165 123.147H124.257V123.511H122.165V123.147ZM129.739 123.147H131.832V123.511H129.739V123.147ZM137.314 123.147H139.406V123.511H137.314V123.147ZM144.888 123.147H146.98V123.511H144.888V123.147Z" fill="black"/>
<path d="M152.123 112.147H154.215V112.511H152.123V112.147ZM159.697 112.147H161.79V112.511H159.697V112.147ZM167.272 112.147H169.364V112.511H167.272V112.147ZM174.846 112.147H176.939V112.511H174.846V112.147ZM182.421 112.147H184.513V112.511H182.421V112.147ZM189.995 112.147H192.088V112.511H189.995V112.147ZM197.569 112.147H199.662V112.511H197.569V112.147ZM205.144 112.147H207.236V112.511H205.144V112.147ZM212.718 112.147H214.811V112.511H212.718V112.147ZM220.293 112.147H222.385V112.511H220.293V112.147ZM227.867 112.147H229.96V112.511H227.867V112.147ZM235.442 112.147H237.534V112.511H235.442V112.147ZM243.016 112.147H245.108V112.511H243.016V112.147ZM250.59 112.147H252.683V112.511H250.59V112.147ZM258.165 112.147H260.257V112.511H258.165V112.147ZM265.739 112.147H267.832V112.511H265.739V112.147ZM273.314 112.147H275.406V112.511H273.314V112.147ZM280.888 112.147H282.98V112.511H280.888V112.147ZM152.123 123.147H154.215V123.511H152.123V123.147ZM159.697 123.147H161.79V123.511H159.697V123.147ZM167.272 123.147H169.364V123.511H167.272V123.147ZM174.846 123.147H176.939V123.511H174.846V123.147ZM182.421 123.147H184.513V123.511H182.421V123.147ZM189.995 123.147H192.088V123.511H189.995V123.147ZM197.569 123.147H199.662V123.511H197.569V123.147ZM205.144 123.147H207.236V123.511H205.144V123.147ZM212.718 123.147H214.811V123.511H212.718V123.147ZM220.293 123.147H222.385V123.511H220.293V123.147ZM227.867 123.147H229.96V123.511H227.867V123.147ZM235.442 123.147H237.534V123.511H235.442V123.147ZM243.016 123.147H245.108V123.511H243.016V123.147ZM250.59 123.147H252.683V123.511H250.59V123.147ZM258.165 123.147H260.257V123.511H258.165V123.147ZM265.739 123.147H267.832V123.511H265.739V123.147ZM273.314 123.147H275.406V123.511H273.314V123.147ZM280.888 123.147H282.98V123.511H280.888V123.147Z" fill="black"/>
<rect x="106.125" y="94.125" width="6.75" height="47.75" rx="0.875" fill="#00AFAF" stroke="black" stroke-width="0.25"/>
<rect x="187.125" y="94.125" width="6.75" height="47.75" rx="0.875" fill="#00AFAF" stroke="black" stroke-width="0.25"/>
<rect x="98.125" y="68.125" width="7.75" height="99.75" rx="1.875" fill="#04DCDC" stroke="#012628" stroke-width="0.25"/>
<rect x="82.125" y="68.125" width="7.75" height="99.75" rx="1.875" fill="#04DCDC" stroke="#012628" stroke-width="0.25"/>
<rect x="90.125" y="68.125" width="7.75" height="99.75" rx="1.875" fill="#04DCDC" stroke="#012628" stroke-width="0.25"/>
<rect x="210.125" y="68.125" width="7.75" height="99.75" rx="1.875" fill="#04DCDC" stroke="#012628" stroke-width="0.25"/>
<rect x="194.125" y="68.125" width="7.75" height="99.75" rx="1.875" fill="#04DCDC" stroke="#012628" stroke-width="0.25"/>
<rect x="202.125" y="68.125" width="7.75" height="99.75" rx="1.875" fill="#04DCDC" stroke="#012628" stroke-width="0.25"/>
<path d="M73.511 195.353C73.439 195.479 73.361 195.572 73.277 195.632C73.199 195.686 73.1 195.713 72.98 195.713C72.854 195.713 72.716 195.668 72.566 195.578C72.422 195.482 72.248 195.377 72.044 195.263C71.84 195.149 71.6 195.047 71.324 194.957C71.054 194.861 70.733 194.813 70.361 194.813C70.025 194.813 69.731 194.855 69.479 194.939C69.227 195.017 69.014 195.128 68.84 195.272C68.672 195.416 68.546 195.59 68.462 195.794C68.378 195.992 68.336 196.211 68.336 196.451C68.336 196.757 68.42 197.012 68.588 197.216C68.762 197.42 68.99 197.594 69.272 197.738C69.554 197.882 69.875 198.011 70.235 198.125C70.595 198.239 70.964 198.362 71.342 198.494C71.72 198.62 72.089 198.77 72.449 198.944C72.809 199.112 73.13 199.328 73.412 199.592C73.694 199.85 73.919 200.168 74.087 200.546C74.261 200.924 74.348 201.383 74.348 201.923C74.348 202.511 74.246 203.063 74.042 203.579C73.844 204.089 73.55 204.536 73.16 204.92C72.776 205.298 72.305 205.598 71.747 205.82C71.189 206.036 70.55 206.144 69.83 206.144C69.416 206.144 69.008 206.102 68.606 206.018C68.204 205.94 67.817 205.826 67.445 205.676C67.079 205.526 66.734 205.346 66.41 205.136C66.086 204.926 65.798 204.692 65.546 204.434L66.257 203.273C66.317 203.189 66.395 203.12 66.491 203.066C66.587 203.006 66.689 202.976 66.797 202.976C66.947 202.976 67.109 203.039 67.283 203.165C67.457 203.285 67.664 203.42 67.904 203.57C68.144 203.72 68.423 203.858 68.741 203.984C69.065 204.104 69.452 204.164 69.902 204.164C70.592 204.164 71.126 204.002 71.504 203.678C71.882 203.348 72.071 202.877 72.071 202.265C72.071 201.923 71.984 201.644 71.81 201.428C71.642 201.212 71.417 201.032 71.135 200.888C70.853 200.738 70.532 200.612 70.172 200.51C69.812 200.408 69.446 200.297 69.074 200.177C68.702 200.057 68.336 199.913 67.976 199.745C67.616 199.577 67.295 199.358 67.013 199.088C66.731 198.818 66.503 198.482 66.329 198.08C66.161 197.672 66.077 197.171 66.077 196.577C66.077 196.103 66.17 195.641 66.356 195.191C66.548 194.741 66.824 194.342 67.184 193.994C67.544 193.646 67.988 193.367 68.516 193.157C69.044 192.947 69.65 192.842 70.334 192.842C71.102 192.842 71.81 192.962 72.458 193.202C73.106 193.442 73.658 193.778 74.114 194.21L73.511 195.353ZM82.4899 199.529C82.9339 199.529 83.3209 199.475 83.6509 199.367C83.9809 199.253 84.2539 199.094 84.4699 198.89C84.6919 198.68 84.8569 198.428 84.9649 198.134C85.0729 197.834 85.1269 197.501 85.1269 197.135C85.1269 196.787 85.0729 196.472 84.9649 196.19C84.8569 195.908 84.6949 195.668 84.4789 195.47C84.2629 195.272 83.9899 195.122 83.6599 195.02C83.3299 194.912 82.9399 194.858 82.4899 194.858H80.6809V199.529H82.4899ZM82.4899 192.986C83.3599 192.986 84.1129 193.088 84.7489 193.292C85.3849 193.496 85.9099 193.781 86.3239 194.147C86.7379 194.513 87.0439 194.951 87.2419 195.461C87.4459 195.971 87.5479 196.529 87.5479 197.135C87.5479 197.765 87.4429 198.344 87.2329 198.872C87.0229 199.394 86.7079 199.844 86.2879 200.222C85.8679 200.6 85.3399 200.894 84.7039 201.104C84.0739 201.314 83.3359 201.419 82.4899 201.419H80.6809V206H78.2599V192.986H82.4899ZM103.615 199.493C103.615 200.447 103.456 201.332 103.138 202.148C102.826 202.958 102.382 203.66 101.806 204.254C101.23 204.848 100.537 205.313 99.7275 205.649C98.9175 205.979 98.0175 206.144 97.0275 206.144C96.0435 206.144 95.1465 205.979 94.3365 205.649C93.5265 205.313 92.8305 204.848 92.2485 204.254C91.6725 203.66 91.2255 202.958 90.9075 202.148C90.5895 201.332 90.4305 200.447 90.4305 199.493C90.4305 198.539 90.5895 197.657 90.9075 196.847C91.2255 196.031 91.6725 195.326 92.2485 194.732C92.8305 194.138 93.5265 193.676 94.3365 193.346C95.1465 193.01 96.0435 192.842 97.0275 192.842C97.6875 192.842 98.3085 192.92 98.8905 193.076C99.4725 193.226 100.006 193.442 100.492 193.724C100.978 194 101.413 194.339 101.797 194.741C102.187 195.137 102.517 195.581 102.787 196.073C103.057 196.565 103.261 197.099 103.399 197.675C103.543 198.251 103.615 198.857 103.615 199.493ZM101.14 199.493C101.14 198.779 101.044 198.14 100.852 197.576C100.66 197.006 100.387 196.523 100.033 196.127C99.6795 195.731 99.2475 195.428 98.7375 195.218C98.2335 195.008 97.6635 194.903 97.0275 194.903C96.3915 194.903 95.8185 195.008 95.3085 195.218C94.8045 195.428 94.3725 195.731 94.0125 196.127C93.6585 196.523 93.3855 197.006 93.1935 197.576C93.0015 198.14 92.9055 198.779 92.9055 199.493C92.9055 200.207 93.0015 200.849 93.1935 201.419C93.3855 201.983 93.6585 202.463 94.0125 202.859C94.3725 203.249 94.8045 203.549 95.3085 203.759C95.8185 203.969 96.3915 204.074 97.0275 204.074C97.6635 204.074 98.2335 203.969 98.7375 203.759C99.2475 203.549 99.6795 203.249 100.033 202.859C100.387 202.463 100.66 201.983 100.852 201.419C101.044 200.849 101.14 200.207 101.14 199.493ZM111.475 199.178C111.931 199.178 112.327 199.121 112.663 199.007C113.005 198.893 113.284 198.737 113.5 198.539C113.722 198.335 113.887 198.095 113.995 197.819C114.103 197.543 114.157 197.24 114.157 196.91C114.157 196.25 113.938 195.743 113.5 195.389C113.068 195.035 112.405 194.858 111.511 194.858H109.963V199.178H111.475ZM117.703 206H115.516C115.102 206 114.802 205.838 114.616 205.514L111.88 201.347C111.778 201.191 111.664 201.08 111.538 201.014C111.418 200.948 111.238 200.915 110.998 200.915H109.963V206H107.542V192.986H111.511C112.393 192.986 113.149 193.079 113.779 193.265C114.415 193.445 114.934 193.7 115.336 194.03C115.744 194.36 116.044 194.756 116.236 195.218C116.428 195.674 116.524 196.178 116.524 196.73C116.524 197.168 116.458 197.582 116.326 197.972C116.2 198.362 116.014 198.716 115.768 199.034C115.528 199.352 115.228 199.631 114.868 199.871C114.514 200.111 114.109 200.3 113.653 200.438C113.809 200.528 113.953 200.636 114.085 200.762C114.217 200.882 114.337 201.026 114.445 201.194L117.703 206ZM129.664 194.975H125.74V206H123.319V194.975H119.395V192.986H129.664V194.975ZM140.062 195.353C139.99 195.479 139.912 195.572 139.828 195.632C139.75 195.686 139.651 195.713 139.531 195.713C139.405 195.713 139.267 195.668 139.117 195.578C138.973 195.482 138.799 195.377 138.595 195.263C138.391 195.149 138.151 195.047 137.875 194.957C137.605 194.861 137.284 194.813 136.912 194.813C136.576 194.813 136.282 194.855 136.03 194.939C135.778 195.017 135.565 195.128 135.391 195.272C135.223 195.416 135.097 195.59 135.013 195.794C134.929 195.992 134.887 196.211 134.887 196.451C134.887 196.757 134.971 197.012 135.139 197.216C135.313 197.42 135.541 197.594 135.823 197.738C136.105 197.882 136.426 198.011 136.786 198.125C137.146 198.239 137.515 198.362 137.893 198.494C138.271 198.62 138.64 198.77 139 198.944C139.36 199.112 139.681 199.328 139.963 199.592C140.245 199.85 140.47 200.168 140.638 200.546C140.812 200.924 140.899 201.383 140.899 201.923C140.899 202.511 140.797 203.063 140.593 203.579C140.395 204.089 140.101 204.536 139.711 204.92C139.327 205.298 138.856 205.598 138.298 205.82C137.74 206.036 137.101 206.144 136.381 206.144C135.967 206.144 135.559 206.102 135.157 206.018C134.755 205.94 134.368 205.826 133.996 205.676C133.63 205.526 133.285 205.346 132.961 205.136C132.637 204.926 132.349 204.692 132.097 204.434L132.808 203.273C132.868 203.189 132.946 203.12 133.042 203.066C133.138 203.006 133.24 202.976 133.348 202.976C133.498 202.976 133.66 203.039 133.834 203.165C134.008 203.285 134.215 203.42 134.455 203.57C134.695 203.72 134.974 203.858 135.292 203.984C135.616 204.104 136.003 204.164 136.453 204.164C137.143 204.164 137.677 204.002 138.055 203.678C138.433 203.348 138.622 202.877 138.622 202.265C138.622 201.923 138.535 201.644 138.361 201.428C138.193 201.212 137.968 201.032 137.686 200.888C137.404 200.738 137.083 200.612 136.723 200.51C136.363 200.408 135.997 200.297 135.625 200.177C135.253 200.057 134.887 199.913 134.527 199.745C134.167 199.577 133.846 199.358 133.564 199.088C133.282 198.818 133.054 198.482 132.88 198.08C132.712 197.672 132.628 197.171 132.628 196.577C132.628 196.103 132.721 195.641 132.907 195.191C133.099 194.741 133.375 194.342 133.735 193.994C134.095 193.646 134.539 193.367 135.067 193.157C135.595 192.947 136.201 192.842 136.885 192.842C137.653 192.842 138.361 192.962 139.009 193.202C139.657 193.442 140.209 193.778 140.665 194.21L140.062 195.353ZM157.918 195.353C157.846 195.479 157.768 195.572 157.684 195.632C157.606 195.686 157.507 195.713 157.387 195.713C157.261 195.713 157.123 195.668 156.973 195.578C156.829 195.482 156.655 195.377 156.451 195.263C156.247 195.149 156.007 195.047 155.731 194.957C155.461 194.861 155.14 194.813 154.768 194.813C154.432 194.813 154.138 194.855 153.886 194.939C153.634 195.017 153.421 195.128 153.247 195.272C153.079 195.416 152.953 195.59 152.869 195.794C152.785 195.992 152.743 196.211 152.743 196.451C152.743 196.757 152.827 197.012 152.995 197.216C153.169 197.42 153.397 197.594 153.679 197.738C153.961 197.882 154.282 198.011 154.642 198.125C155.002 198.239 155.371 198.362 155.749 198.494C156.127 198.62 156.496 198.77 156.856 198.944C157.216 199.112 157.537 199.328 157.819 199.592C158.101 199.85 158.326 200.168 158.494 200.546C158.668 200.924 158.755 201.383 158.755 201.923C158.755 202.511 158.653 203.063 158.449 203.579C158.251 204.089 157.957 204.536 157.567 204.92C157.183 205.298 156.712 205.598 156.154 205.82C155.596 206.036 154.957 206.144 154.237 206.144C153.823 206.144 153.415 206.102 153.013 206.018C152.611 205.94 152.224 205.826 151.852 205.676C151.486 205.526 151.141 205.346 150.817 205.136C150.493 204.926 150.205 204.692 149.953 204.434L150.664 203.273C150.724 203.189 150.802 203.12 150.898 203.066C150.994 203.006 151.096 202.976 151.204 202.976C151.354 202.976 151.516 203.039 151.69 203.165C151.864 203.285 152.071 203.42 152.311 203.57C152.551 203.72 152.83 203.858 153.148 203.984C153.472 204.104 153.859 204.164 154.309 204.164C154.999 204.164 155.533 204.002 155.911 203.678C156.289 203.348 156.478 202.877 156.478 202.265C156.478 201.923 156.391 201.644 156.217 201.428C156.049 201.212 155.824 201.032 155.542 200.888C155.26 200.738 154.939 200.612 154.579 200.51C154.219 200.408 153.853 200.297 153.481 200.177C153.109 200.057 152.743 199.913 152.383 199.745C152.023 199.577 151.702 199.358 151.42 199.088C151.138 198.818 150.91 198.482 150.736 198.08C150.568 197.672 150.484 197.171 150.484 196.577C150.484 196.103 150.577 195.641 150.763 195.191C150.955 194.741 151.231 194.342 151.591 193.994C151.951 193.646 152.395 193.367 152.923 193.157C153.451 192.947 154.057 192.842 154.741 192.842C155.509 192.842 156.217 192.962 156.865 193.202C157.513 193.442 158.065 193.778 158.521 194.21L157.918 195.353ZM171.757 194.975H167.833V206H165.412V194.975H161.488V192.986H171.757V194.975ZM179.193 199.178C179.649 199.178 180.045 199.121 180.381 199.007C180.723 198.893 181.002 198.737 181.218 198.539C181.44 198.335 181.605 198.095 181.713 197.819C181.821 197.543 181.875 197.24 181.875 196.91C181.875 196.25 181.656 195.743 181.218 195.389C180.786 195.035 180.123 194.858 179.229 194.858H177.681V199.178H179.193ZM185.421 206H183.234C182.82 206 182.52 205.838 182.334 205.514L179.598 201.347C179.496 201.191 179.382 201.08 179.256 201.014C179.136 200.948 178.956 200.915 178.716 200.915H177.681V206H175.26V192.986H179.229C180.111 192.986 180.867 193.079 181.497 193.265C182.133 193.445 182.652 193.7 183.054 194.03C183.462 194.36 183.762 194.756 183.954 195.218C184.146 195.674 184.242 196.178 184.242 196.73C184.242 197.168 184.176 197.582 184.044 197.972C183.918 198.362 183.732 198.716 183.486 199.034C183.246 199.352 182.946 199.631 182.586 199.871C182.232 200.111 181.827 200.3 181.371 200.438C181.527 200.528 181.671 200.636 181.803 200.762C181.935 200.882 182.055 201.026 182.163 201.194L185.421 206ZM200.861 199.493C200.861 200.447 200.702 201.332 200.384 202.148C200.072 202.958 199.628 203.66 199.052 204.254C198.476 204.848 197.783 205.313 196.973 205.649C196.163 205.979 195.263 206.144 194.273 206.144C193.289 206.144 192.392 205.979 191.582 205.649C190.772 205.313 190.076 204.848 189.494 204.254C188.918 203.66 188.471 202.958 188.153 202.148C187.835 201.332 187.676 200.447 187.676 199.493C187.676 198.539 187.835 197.657 188.153 196.847C188.471 196.031 188.918 195.326 189.494 194.732C190.076 194.138 190.772 193.676 191.582 193.346C192.392 193.01 193.289 192.842 194.273 192.842C194.933 192.842 195.554 192.92 196.136 193.076C196.718 193.226 197.252 193.442 197.738 193.724C198.224 194 198.659 194.339 199.043 194.741C199.433 195.137 199.763 195.581 200.033 196.073C200.303 196.565 200.507 197.099 200.645 197.675C200.789 198.251 200.861 198.857 200.861 199.493ZM198.386 199.493C198.386 198.779 198.29 198.14 198.098 197.576C197.906 197.006 197.633 196.523 197.279 196.127C196.925 195.731 196.493 195.428 195.983 195.218C195.479 195.008 194.909 194.903 194.273 194.903C193.637 194.903 193.064 195.008 192.554 195.218C192.05 195.428 191.618 195.731 191.258 196.127C190.904 196.523 190.631 197.006 190.439 197.576C190.247 198.14 190.151 198.779 190.151 199.493C190.151 200.207 190.247 200.849 190.439 201.419C190.631 201.983 190.904 202.463 191.258 202.859C191.618 203.249 192.05 203.549 192.554 203.759C193.064 203.969 193.637 204.074 194.273 204.074C194.909 204.074 195.479 203.969 195.983 203.759C196.493 203.549 196.925 203.249 197.279 202.859C197.633 202.463 197.906 201.983 198.098 201.419C198.29 200.849 198.386 200.207 198.386 199.493ZM215.758 192.986V206H214.516C214.324 206 214.162 205.97 214.03 205.91C213.904 205.844 213.781 205.736 213.661 205.586L206.866 196.91C206.902 197.306 206.92 197.672 206.92 198.008V206H204.787V192.986H206.056C206.158 192.986 206.245 192.992 206.317 193.004C206.395 193.01 206.461 193.028 206.515 193.058C206.575 193.082 206.632 193.121 206.686 193.175C206.74 193.223 206.8 193.289 206.866 193.373L213.688 202.085C213.67 201.875 213.655 201.668 213.643 201.464C213.631 201.26 213.625 201.071 213.625 200.897V192.986H215.758ZM231.184 199.475V204.74C230.524 205.226 229.819 205.583 229.069 205.811C228.325 206.033 227.527 206.144 226.675 206.144C225.613 206.144 224.65 205.979 223.786 205.649C222.928 205.319 222.193 204.86 221.581 204.272C220.975 203.684 220.507 202.982 220.177 202.166C219.847 201.35 219.682 200.459 219.682 199.493C219.682 198.515 219.841 197.618 220.159 196.802C220.477 195.986 220.927 195.284 221.509 194.696C222.097 194.108 222.808 193.652 223.642 193.328C224.476 193.004 225.412 192.842 226.45 192.842C226.978 192.842 227.47 192.884 227.926 192.968C228.388 193.052 228.814 193.169 229.204 193.319C229.6 193.463 229.96 193.64 230.284 193.85C230.608 194.06 230.905 194.291 231.175 194.543L230.482 195.641C230.374 195.815 230.233 195.923 230.059 195.965C229.885 196.001 229.696 195.956 229.492 195.83C229.294 195.716 229.096 195.602 228.898 195.488C228.7 195.374 228.478 195.275 228.232 195.191C227.992 195.107 227.719 195.038 227.413 194.984C227.113 194.93 226.765 194.903 226.369 194.903C225.727 194.903 225.145 195.011 224.623 195.227C224.107 195.443 223.666 195.752 223.3 196.154C222.934 196.556 222.652 197.039 222.454 197.603C222.256 198.167 222.157 198.797 222.157 199.493C222.157 200.237 222.262 200.903 222.472 201.491C222.688 202.073 222.988 202.568 223.372 202.976C223.762 203.378 224.23 203.687 224.776 203.903C225.322 204.113 225.931 204.218 226.603 204.218C227.083 204.218 227.512 204.167 227.89 204.065C228.268 203.963 228.637 203.825 228.997 203.651V201.293H227.359C227.203 201.293 227.08 201.251 226.99 201.167C226.906 201.077 226.864 200.969 226.864 200.843V199.475H231.184ZM82.1806 215.912V219.764H87.0586V221.699H82.1806V227H79.7506V213.986H87.9586V215.912H82.1806ZM94.1759 227H91.7459V213.986H94.1759V227ZM107.98 215.975H104.056V227H101.635V215.975H97.7106V213.986H107.98V215.975ZM122.454 213.986V227H121.212C121.02 227 120.858 226.97 120.726 226.91C120.6 226.844 120.477 226.736 120.357 226.586L113.562 217.91C113.598 218.306 113.616 218.672 113.616 219.008V227H111.483V213.986H112.752C112.854 213.986 112.941 213.992 113.013 214.004C113.091 214.01 113.157 214.028 113.211 214.058C113.271 214.082 113.328 214.121 113.382 214.175C113.436 214.223 113.496 214.289 113.562 214.373L120.384 223.085C120.366 222.875 120.351 222.668 120.339 222.464C120.327 222.26 120.321 222.071 120.321 221.897V213.986H122.454ZM129.582 215.912V219.521H134.136V221.384H129.582V225.065H135.36V227H127.152V213.986H135.36V215.912H129.582ZM146.235 216.353C146.163 216.479 146.085 216.572 146.001 216.632C145.923 216.686 145.824 216.713 145.704 216.713C145.578 216.713 145.44 216.668 145.29 216.578C145.146 216.482 144.972 216.377 144.768 216.263C144.564 216.149 144.324 216.047 144.048 215.957C143.778 215.861 143.457 215.813 143.085 215.813C142.749 215.813 142.455 215.855 142.203 215.939C141.951 216.017 141.738 216.128 141.564 216.272C141.396 216.416 141.27 216.59 141.186 216.794C141.102 216.992 141.06 217.211 141.06 217.451C141.06 217.757 141.144 218.012 141.312 218.216C141.486 218.42 141.714 218.594 141.996 218.738C142.278 218.882 142.599 219.011 142.959 219.125C143.319 219.239 143.688 219.362 144.066 219.494C144.444 219.62 144.813 219.77 145.173 219.944C145.533 220.112 145.854 220.328 146.136 220.592C146.418 220.85 146.643 221.168 146.811 221.546C146.985 221.924 147.072 222.383 147.072 222.923C147.072 223.511 146.97 224.063 146.766 224.579C146.568 225.089 146.274 225.536 145.884 225.92C145.5 226.298 145.029 226.598 144.471 226.82C143.913 227.036 143.274 227.144 142.554 227.144C142.14 227.144 141.732 227.102 141.33 227.018C140.928 226.94 140.541 226.826 140.169 226.676C139.803 226.526 139.458 226.346 139.134 226.136C138.81 225.926 138.522 225.692 138.27 225.434L138.981 224.273C139.041 224.189 139.119 224.12 139.215 224.066C139.311 224.006 139.413 223.976 139.521 223.976C139.671 223.976 139.833 224.039 140.007 224.165C140.181 224.285 140.388 224.42 140.628 224.57C140.868 224.72 141.147 224.858 141.465 224.984C141.789 225.104 142.176 225.164 142.626 225.164C143.316 225.164 143.85 225.002 144.228 224.678C144.606 224.348 144.795 223.877 144.795 223.265C144.795 222.923 144.708 222.644 144.534 222.428C144.366 222.212 144.141 222.032 143.859 221.888C143.577 221.738 143.256 221.612 142.896 221.51C142.536 221.408 142.17 221.297 141.798 221.177C141.426 221.057 141.06 220.913 140.7 220.745C140.34 220.577 140.019 220.358 139.737 220.088C139.455 219.818 139.227 219.482 139.053 219.08C138.885 218.672 138.801 218.171 138.801 217.577C138.801 217.103 138.894 216.641 139.08 216.191C139.272 215.741 139.548 215.342 139.908 214.994C140.268 214.646 140.712 214.367 141.24 214.157C141.768 213.947 142.374 213.842 143.058 213.842C143.826 213.842 144.534 213.962 145.182 214.202C145.83 214.442 146.382 214.778 146.838 215.21L146.235 216.353ZM157.914 216.353C157.842 216.479 157.764 216.572 157.68 216.632C157.602 216.686 157.503 216.713 157.383 216.713C157.257 216.713 157.119 216.668 156.969 216.578C156.825 216.482 156.651 216.377 156.447 216.263C156.243 216.149 156.003 216.047 155.727 215.957C155.457 215.861 155.136 215.813 154.764 215.813C154.428 215.813 154.134 215.855 153.882 215.939C153.63 216.017 153.417 216.128 153.243 216.272C153.075 216.416 152.949 216.59 152.865 216.794C152.781 216.992 152.739 217.211 152.739 217.451C152.739 217.757 152.823 218.012 152.991 218.216C153.165 218.42 153.393 218.594 153.675 218.738C153.957 218.882 154.278 219.011 154.638 219.125C154.998 219.239 155.367 219.362 155.745 219.494C156.123 219.62 156.492 219.77 156.852 219.944C157.212 220.112 157.533 220.328 157.815 220.592C158.097 220.85 158.322 221.168 158.49 221.546C158.664 221.924 158.751 222.383 158.751 222.923C158.751 223.511 158.649 224.063 158.445 224.579C158.247 225.089 157.953 225.536 157.563 225.92C157.179 226.298 156.708 226.598 156.15 226.82C155.592 227.036 154.953 227.144 154.233 227.144C153.819 227.144 153.411 227.102 153.009 227.018C152.607 226.94 152.22 226.826 151.848 226.676C151.482 226.526 151.137 226.346 150.813 226.136C150.489 225.926 150.201 225.692 149.949 225.434L150.66 224.273C150.72 224.189 150.798 224.12 150.894 224.066C150.99 224.006 151.092 223.976 151.2 223.976C151.35 223.976 151.512 224.039 151.686 224.165C151.86 224.285 152.067 224.42 152.307 224.57C152.547 224.72 152.826 224.858 153.144 224.984C153.468 225.104 153.855 225.164 154.305 225.164C154.995 225.164 155.529 225.002 155.907 224.678C156.285 224.348 156.474 223.877 156.474 223.265C156.474 222.923 156.387 222.644 156.213 222.428C156.045 222.212 155.82 222.032 155.538 221.888C155.256 221.738 154.935 221.612 154.575 221.51C154.215 221.408 153.849 221.297 153.477 221.177C153.105 221.057 152.739 220.913 152.379 220.745C152.019 220.577 151.698 220.358 151.416 220.088C151.134 219.818 150.906 219.482 150.732 219.08C150.564 218.672 150.48 218.171 150.48 217.577C150.48 217.103 150.573 216.641 150.759 216.191C150.951 215.741 151.227 215.342 151.587 214.994C151.947 214.646 152.391 214.367 152.919 214.157C153.447 213.947 154.053 213.842 154.737 213.842C155.505 213.842 156.213 213.962 156.861 214.202C157.509 214.442 158.061 214.778 158.517 215.21L157.914 216.353ZM177.777 223.931C177.909 223.931 178.026 223.982 178.128 224.084L179.082 225.119C178.554 225.773 177.903 226.274 177.129 226.622C176.361 226.97 175.437 227.144 174.357 227.144C173.391 227.144 172.521 226.979 171.747 226.649C170.979 226.319 170.322 225.86 169.776 225.272C169.23 224.684 168.81 223.982 168.516 223.166C168.228 222.35 168.084 221.459 168.084 220.493C168.084 219.515 168.24 218.621 168.552 217.811C168.864 216.995 169.302 216.293 169.866 215.705C170.436 215.117 171.114 214.661 171.9 214.337C172.686 214.007 173.556 213.842 174.51 213.842C175.458 213.842 176.298 213.998 177.03 214.31C177.768 214.622 178.395 215.03 178.911 215.534L178.101 216.659C178.053 216.731 177.99 216.794 177.912 216.848C177.84 216.902 177.738 216.929 177.606 216.929C177.516 216.929 177.423 216.905 177.327 216.857C177.231 216.803 177.126 216.74 177.012 216.668C176.898 216.59 176.766 216.506 176.616 216.416C176.466 216.326 176.292 216.245 176.094 216.173C175.896 216.095 175.665 216.032 175.401 215.984C175.143 215.93 174.843 215.903 174.501 215.903C173.919 215.903 173.385 216.008 172.899 216.218C172.419 216.422 172.005 216.722 171.657 217.118C171.309 217.508 171.039 217.988 170.847 218.558C170.655 219.122 170.559 219.767 170.559 220.493C170.559 221.225 170.661 221.876 170.865 222.446C171.075 223.016 171.357 223.496 171.711 223.886C172.065 224.276 172.482 224.576 172.962 224.786C173.442 224.99 173.958 225.092 174.51 225.092C174.84 225.092 175.137 225.074 175.401 225.038C175.671 225.002 175.917 224.945 176.139 224.867C176.367 224.789 176.58 224.69 176.778 224.57C176.982 224.444 177.183 224.291 177.381 224.111C177.441 224.057 177.504 224.015 177.57 223.985C177.636 223.949 177.705 223.931 177.777 223.931ZM190.163 225.002V227H182.54V213.986H184.961V225.002H190.163ZM198.578 225.047C199.046 225.047 199.463 224.969 199.829 224.813C200.201 224.657 200.513 224.438 200.765 224.156C201.017 223.874 201.209 223.532 201.341 223.13C201.479 222.728 201.548 222.278 201.548 221.78V213.986H203.969V221.78C203.969 222.554 203.843 223.271 203.591 223.931C203.345 224.585 202.988 225.152 202.52 225.632C202.058 226.106 201.494 226.478 200.828 226.748C200.162 227.012 199.412 227.144 198.578 227.144C197.738 227.144 196.985 227.012 196.319 226.748C195.653 226.478 195.086 226.106 194.618 225.632C194.156 225.152 193.799 224.585 193.547 223.931C193.301 223.271 193.178 222.554 193.178 221.78V213.986H195.599V221.771C195.599 222.269 195.665 222.719 195.797 223.121C195.935 223.523 196.13 223.868 196.382 224.156C196.64 224.438 196.952 224.657 197.318 224.813C197.69 224.969 198.11 225.047 198.578 225.047ZM213.369 225.11C213.819 225.11 214.197 225.056 214.503 224.948C214.809 224.84 215.052 224.696 215.232 224.516C215.418 224.336 215.55 224.126 215.628 223.886C215.712 223.646 215.754 223.391 215.754 223.121C215.754 222.839 215.709 222.587 215.619 222.365C215.529 222.137 215.388 221.945 215.196 221.789C215.004 221.627 214.755 221.504 214.449 221.42C214.149 221.336 213.786 221.294 213.36 221.294H210.921V225.11H213.369ZM210.921 215.858V219.62H212.847C213.675 219.62 214.299 219.47 214.719 219.17C215.145 218.87 215.358 218.393 215.358 217.739C215.358 217.061 215.166 216.578 214.782 216.29C214.398 216.002 213.798 215.858 212.982 215.858H210.921ZM212.982 213.986C213.834 213.986 214.563 214.067 215.169 214.229C215.775 214.391 216.27 214.622 216.654 214.922C217.044 215.222 217.329 215.585 217.509 216.011C217.689 216.437 217.779 216.917 217.779 217.451C217.779 217.757 217.734 218.051 217.644 218.333C217.554 218.609 217.413 218.87 217.221 219.116C217.035 219.356 216.795 219.575 216.501 219.773C216.213 219.971 215.868 220.139 215.466 220.277C217.254 220.679 218.148 221.645 218.148 223.175C218.148 223.727 218.043 224.237 217.833 224.705C217.623 225.173 217.317 225.578 216.915 225.92C216.513 226.256 216.018 226.52 215.43 226.712C214.842 226.904 214.17 227 213.414 227H208.5V213.986H212.982Z" fill="#00AFAF"/>
</svg>
